<svg width="434" height="406" viewBox="0 0 434 406" fill="none" xmlns="http://www.w3.org/2000/svg">
<path d="M292.571 44.5679C281.714 28.7269 294.514 1.771 313.65 0.137401C324.798 -0.81438 333.22 3.16859 339.546 12.398C350.403 28.239 337.603 55.1949 318.467 56.8285C307.319 57.7803 298.897 53.7973 292.571 44.5679ZM362.947 76.5658C352.101 60.7292 364.901 33.8135 384.025 32.164C395.183 31.2016 403.622 35.1845 409.95 44.4246C420.796 60.2613 407.995 87.1769 388.872 88.8265C377.714 89.7889 369.275 85.8059 362.947 76.5658ZM222.397 78.8862C210.461 63.0833 222.949 34.4683 242.643 32.3932C253.775 31.2203 262.195 34.8622 268.941 43.7944C280.876 59.5973 268.389 88.2123 248.694 90.2874C237.562 91.4603 229.143 87.8184 222.397 78.8862ZM324.174 98.6522C316.074 95.2158 307.308 93.6305 298.516 94.0121C289.724 94.3937 281.128 96.7326 273.357 100.858L225.752 124.52C203.211 136.523 193.518 167.031 212.732 188.573C221.336 199.258 234.642 203.756 246.572 203.756H267.679C273.185 203.756 277.315 205.875 279.236 208.339L279.408 208.54L291.654 223.636C300.286 234.55 313.707 239.105 325.752 239.105C352.049 239.105 373.386 214.297 367.908 188.172L357.383 137.611L357.097 136.465C352.594 121.455 341.352 105.699 324.174 98.6522ZM382.304 149.041C371.424 133.203 384.238 106.227 403.383 104.582C414.541 103.623 422.976 107.604 429.307 116.843C440.164 132.684 427.362 159.616 408.229 161.273C397.076 162.239 388.643 158.268 382.304 149.041ZM114.797 221.975C95.6719 220.348 82.8994 193.427 93.7193 177.573C100.032 168.323 108.456 164.313 119.615 165.255C138.752 166.87 151.537 193.835 140.694 209.685C134.373 218.924 125.951 222.923 114.797 221.975ZM44.3934 253.973C25.2698 252.323 12.4828 225.417 23.3152 209.571C29.6382 200.321 38.0766 196.326 49.24 197.282C68.3747 198.919 81.1745 225.87 70.3182 241.712C63.9872 250.95 55.5514 254.935 44.3934 253.973ZM184.571 255.434C164.876 253.355 152.403 224.754 164.324 208.941C171.065 199.999 179.484 196.346 190.622 197.511C210.322 199.572 222.819 228.185 210.897 244.004C204.151 252.954 195.717 256.61 184.571 255.434ZM160.911 268.181C153.396 262.7 144.502 259.414 135.224 258.691C125.946 257.967 116.65 259.835 108.374 264.085C91.425 271.361 80.3841 287.174 76.0537 303.76L75.8817 304.447L65.3282 354.98C59.9941 380.475 78.8068 405.941 107.513 405.941C119.558 405.941 132.979 401.358 141.611 390.472L154.029 375.175C155.95 372.712 160.051 370.563 165.586 370.563H186.721C198.766 370.563 212.245 365.98 220.877 354.951C224.71 350.083 227.43 344.435 228.843 338.405C230.257 332.375 230.331 326.108 229.06 320.046C227.789 313.984 225.203 308.274 221.486 303.318C217.768 298.361 213.009 294.278 207.542 291.356L207.169 291.156L160.911 268.181ZM25.0645 326.448C5.93375 324.826 -6.86337 297.906 3.95764 282.046C10.2751 272.787 18.7138 268.778 29.8824 269.728C41.051 270.679 61.8045 298.308 50.9606 314.159C44.64 323.397 36.2185 327.394 25.0645 326.448Z" fill="#D2B48C" fill-opacity="0.65"/>
</svg>
