<svg width="445" height="417" viewBox="0 0 445 417" fill="none" xmlns="http://www.w3.org/2000/svg">
<path d="M144.289 45.7003C155.422 29.4568 142.296 1.81599 122.675 0.140892C111.243 -0.835071 102.608 3.2491 96.121 12.713C84.9876 28.9565 98.1134 56.5973 117.735 58.2724C129.167 59.2484 137.802 55.1642 144.289 45.7003ZM72.1253 78.5113C83.2468 62.2722 70.121 34.6727 50.5115 32.9812C39.0701 31.9944 30.4171 36.0785 23.9281 45.5534C12.8065 61.7924 25.9323 89.392 45.5418 91.0834C56.9833 92.0703 65.6363 87.9861 72.1253 78.5113ZM216.246 80.8906C228.485 64.6862 215.68 35.344 195.485 33.2162C184.071 32.0135 175.437 35.748 168.52 44.9072C156.281 61.1116 169.086 90.4537 189.281 92.5815C200.695 93.7842 209.329 90.0497 216.246 80.8906ZM111.883 101.159C120.189 97.6351 129.178 96.0095 138.193 96.4008C147.209 96.7921 156.023 99.1905 163.991 103.421L212.806 127.684C235.919 139.991 245.859 171.275 226.156 193.364C217.335 204.321 203.69 208.933 191.457 208.933H169.814C164.168 208.933 159.933 211.106 157.963 213.633L157.786 213.838L145.23 229.318C136.378 240.51 122.616 245.18 110.266 245.18C83.2998 245.18 61.4213 219.742 67.038 192.953L77.8301 141.108L78.1242 139.933C82.741 124.541 94.2684 108.385 111.883 101.159ZM52.2759 152.828C63.4326 136.588 50.2929 108.926 30.6621 107.239C19.2204 106.256 10.5705 110.338 4.07867 119.811C-7.05347 136.056 6.07314 163.672 25.6924 165.371C37.1287 166.361 45.776 162.289 52.2759 152.828ZM326.58 227.615C346.191 225.947 359.288 198.342 348.193 182.085C341.72 172.6 333.082 168.488 321.639 169.454C302.016 171.11 288.906 198.76 300.026 215.013C306.507 224.487 315.142 228.587 326.58 227.615ZM398.773 260.426C418.382 258.734 431.494 231.144 420.386 214.896C413.903 205.411 405.25 201.314 393.803 202.294C374.182 203.974 361.057 231.609 372.189 247.854C378.681 257.327 387.331 261.413 398.773 260.426ZM255.034 261.924C275.228 259.792 288.019 230.464 275.795 214.249C268.882 205.081 260.249 201.334 248.829 202.529C228.628 204.642 215.813 233.983 228.038 250.203C234.956 259.381 243.604 263.13 255.034 261.924ZM279.294 274.995C287.001 269.375 296.121 266.005 305.634 265.263C315.147 264.522 324.68 266.437 333.167 270.795C350.546 278.256 361.867 294.47 366.308 311.478L366.484 312.183L377.306 363.999C382.775 390.142 363.485 416.256 334.049 416.256C321.698 416.256 307.936 411.556 299.085 400.394L286.352 384.708C284.381 382.182 280.176 379.979 274.501 379.979H252.828C240.477 379.979 226.656 375.279 217.805 363.97C213.874 358.978 211.086 353.187 209.636 347.003C208.186 340.82 208.111 334.394 209.414 328.178C210.717 321.962 213.368 316.107 217.181 311.024C220.993 305.942 225.873 301.755 231.479 298.759L231.861 298.553L279.294 274.995ZM418.593 334.742C438.209 333.079 451.332 305.475 440.236 289.212C433.758 279.718 425.105 275.607 413.652 276.581C394.031 278.251 380.919 305.888 392.039 322.141C398.52 331.614 407.155 335.712 418.593 334.742Z" fill="#D2B48C" fill-opacity="0.65"/>
</svg>
