<svg width="42" height="42" viewBox="0 0 42 42" fill="none" xmlns="http://www.w3.org/2000/svg">
<path d="M21 0C9.40201 0 0 9.40201 0 21C0 32.598 9.40201 42 21 42C32.598 42 42 32.598 42 21C42 9.40201 32.598 0 21 0ZM13.4531 8.34155C13.8858 8.31604 14.2769 8.57465 14.5734 9.03368L17.4445 14.4785C17.7467 15.1237 17.575 15.8145 17.124 16.2755L15.809 17.5905C15.7278 17.7018 15.6744 17.827 15.6731 17.9648C16.1774 19.9169 17.7072 21.7176 19.0569 22.9559C20.4066 24.1942 21.8573 25.8707 23.7404 26.2679C23.9731 26.3328 24.2583 26.3561 24.4248 26.2013L25.9526 24.6453C26.48 24.2456 27.243 24.0518 27.806 24.3787H27.8316L33.0124 27.4369C33.7729 27.9136 33.8517 28.835 33.3072 29.3954L29.7389 32.9356C29.2119 33.476 28.5119 33.6576 27.8317 33.6585C24.8235 33.5683 21.9812 32.0919 19.6466 30.5746C15.8144 27.7867 12.2992 24.329 10.0924 20.1515C9.24606 18.3997 8.25181 16.1646 8.34669 14.2094C8.35516 13.4738 8.55418 12.7532 9.07218 12.2791L12.6405 8.71076C12.9185 8.47423 13.1935 8.35688 13.4531 8.34155Z" fill="#8E3B00"/>
</svg>
