<svg width="42" height="42" viewBox="0 0 42 42" fill="none" xmlns="http://www.w3.org/2000/svg">
<path d="M20.8333 0C9.33333 0 0 9.33333 0 20.8333C0 32.3333 9.33333 41.6667 20.8333 41.6667C32.3333 41.6667 41.6667 32.3333 41.6667 20.8333C41.6667 9.33333 32.3333 0 20.8333 0ZM30.5 14.1667C30.1875 17.4583 28.8333 25.4583 28.1458 29.1458C27.8542 30.7083 27.2708 31.2292 26.7292 31.2917C25.5208 31.3958 24.6042 30.5 23.4375 29.7292C21.6042 28.5208 20.5625 27.7708 18.7917 26.6042C16.7292 25.25 18.0625 24.5 19.25 23.2917C19.5625 22.9792 24.8958 18.125 25 17.6875C25.0145 17.6212 25.0125 17.5524 24.9944 17.4871C24.9762 17.4217 24.9424 17.3618 24.8958 17.3125C24.7708 17.2083 24.6042 17.25 24.4583 17.2708C24.2708 17.3125 21.3542 19.25 15.6667 23.0833C14.8333 23.6458 14.0833 23.9375 13.4167 23.9167C12.6667 23.8958 11.25 23.5 10.1875 23.1458C8.875 22.7292 7.85417 22.5 7.9375 21.7708C7.97917 21.3958 8.5 21.0208 9.47917 20.625C15.5625 17.9792 19.6042 16.2292 21.625 15.3958C27.4167 12.9792 28.6042 12.5625 29.3958 12.5625C29.5625 12.5625 29.9583 12.6042 30.2083 12.8125C30.4167 12.9792 30.4792 13.2083 30.5 13.375C30.4792 13.5 30.5208 13.875 30.5 14.1667Z" fill="#8E3B00"/>
</svg>
